<?xml version="1.0" standalone="no"?>
<!DOCTYPE svg PUBLIC "-//W3C//DTD SVG 20010904//EN"
 "http://www.w3.org/TR/2001/REC-SVG-20010904/DTD/svg10.dtd">
<svg version="1.0" xmlns="http://www.w3.org/2000/svg"
 width="83.000000pt" height="83.000000pt" viewBox="0 0 83.000000 83.000000"
 preserveAspectRatio="xMidYMid meet">
<metadata>
Created by potrace 1.11, written by Peter Selinger 2001-2013
</metadata>
<g transform="translate(0.000000,83.000000) scale(0.100000,-0.100000)"
fill="#000000" stroke="none">
<path d="M510 819 c-62 -25 -123 -120 -106 -166 4 -9 13 -10 38 -1 61 20 112
82 119 143 4 33 -10 40 -51 24z"/>
<path d="M215 623 c-151 -52 -187 -280 -73 -469 68 -114 114 -143 187 -120 73
24 101 26 145 10 60 -22 88 -24 118 -8 32 17 101 104 123 157 l15 37 -44 43
c-48 46 -69 99 -60 157 6 37 47 105 73 119 13 8 10 14 -16 38 -56 52 -137 62
-227 28 -42 -16 -47 -16 -97 0 -69 23 -96 25 -144 8z"/>
</g>
</svg>
